<?xml version="1.0" encoding="utf-8"?>
<!-- Generator: Adobe Illustrator 23.1.0, SVG Export Plug-In . SVG Version: 6.00 Build 0)  -->
<svg version="1.1" id="Слой_1" xmlns="http://www.w3.org/2000/svg" xmlns:xlink="http://www.w3.org/1999/xlink" x="0px" y="0px"
	 viewBox="0 0 15 26" style="enable-background:new 0 0 15 26;" xml:space="preserve">
<style type="text/css">
	.st0{fill:#C4C4C4;}
</style>
<path class="st0" d="M14.4,0l-3.6,0c-4,0-6.7,2.5-6.7,6.4v3H0.6C0.3,9.3,0,9.6,0,9.9v4.3c0,0.3,0.3,0.5,0.6,0.5h3.6v10.8
	c0,0.3,0.3,0.5,0.6,0.5h4.7c0.3,0,0.6-0.2,0.6-0.5V14.7h4.2c0.3,0,0.6-0.2,0.6-0.5l0-4.3c0-0.1-0.1-0.3-0.2-0.4
	c-0.1-0.1-0.3-0.2-0.4-0.2H10V6.8C10,5.6,10.3,5,12,5l2.4,0C14.7,5,15,4.8,15,4.5v-4C15,0.2,14.7,0,14.4,0z"/>
</svg>
