<svg width="47" height="25" viewBox="0 0 47 25" fill="none" xmlns="http://www.w3.org/2000/svg">
<path d="M46.7507 22.5777C46.6938 22.4634 46.6408 22.3685 46.5915 22.2926C45.776 20.9233 44.2177 19.2427 41.9175 17.2503L41.8689 17.2046L41.8446 17.1823L41.82 17.1593H41.7953C40.7514 16.2315 40.0903 15.6077 39.8134 15.2883C39.3069 14.6799 39.1934 14.064 39.4703 13.44C39.6658 12.9686 40.4006 11.9729 41.6727 10.4517C42.3418 9.64557 42.8717 8.99944 43.2631 8.51264C46.0856 5.01431 47.3093 2.77882 46.9339 1.80531L46.7881 1.57782C46.6901 1.44086 46.4373 1.31556 46.0299 1.20129C45.6216 1.08727 45.0997 1.06841 44.4633 1.1444L37.4159 1.18979C37.3017 1.15207 37.1387 1.15559 36.9263 1.20129C36.7142 1.247 36.608 1.26994 36.608 1.26994L36.4854 1.32707L36.388 1.39571C36.3064 1.4411 36.2167 1.52092 36.1187 1.63503C36.0213 1.74874 35.9398 1.88218 35.8746 2.03425C35.1073 3.87459 34.235 5.58564 33.2559 7.16733C32.6523 8.11047 32.0979 8.92784 31.5916 9.61992C31.086 10.3118 30.6618 10.8215 30.3195 11.1482C29.9766 11.4753 29.6672 11.7373 29.3894 11.9352C29.1119 12.1332 28.9001 12.2169 28.7535 12.1863C28.6065 12.1557 28.4681 12.1253 28.337 12.095C28.1088 11.958 27.9252 11.7717 27.7867 11.536C27.6477 11.3003 27.5541 11.0036 27.5052 10.6462C27.4565 10.2885 27.4277 9.98086 27.4195 9.7222C27.4118 9.46386 27.4154 9.09844 27.4319 8.62699C27.4489 8.1553 27.4565 7.83615 27.4565 7.66882C27.4565 7.09077 27.4686 6.46342 27.4928 5.78661C27.5175 5.10979 27.5375 4.57354 27.5542 4.17848C27.5708 3.78302 27.5786 3.36462 27.5786 2.92353C27.5786 2.48245 27.5498 2.13653 27.4928 1.88546C27.4366 1.63471 27.3503 1.39131 27.2366 1.15535C27.1221 0.919622 26.9547 0.737274 26.7349 0.607824C26.5147 0.478534 26.241 0.375933 25.9152 0.299702C25.0504 0.117274 23.9493 0.0185883 22.6113 0.00324613C19.5771 -0.0271186 17.6274 0.155549 16.7628 0.55101C16.4202 0.718095 16.1102 0.94639 15.833 1.23517C15.5393 1.56991 15.4983 1.75257 15.7103 1.78262C16.6893 1.91934 17.3824 2.2464 17.7903 2.76348L17.9373 3.03748C18.0516 3.23517 18.1658 3.58517 18.28 4.08698C18.3941 4.5888 18.4677 5.14391 18.5001 5.75201C18.5816 6.86248 18.5816 7.81306 18.5001 8.60382C18.4184 9.3949 18.3413 10.0107 18.2677 10.4518C18.1941 10.8929 18.084 11.2503 17.9373 11.524C17.7903 11.7978 17.6925 11.9651 17.6435 12.0258C17.5945 12.0866 17.5537 12.1248 17.5213 12.1399C17.3093 12.2156 17.0887 12.2542 16.8605 12.2542C16.6319 12.2542 16.3547 12.1476 16.0285 11.9346C15.7024 11.7216 15.3639 11.4289 15.0131 11.0562C14.6623 10.6835 14.2666 10.1626 13.826 9.49342C13.3857 8.82428 12.9289 8.03344 12.4558 7.1209L12.0643 6.45911C11.8196 6.03336 11.4853 5.41344 11.0612 4.59991C10.6367 3.78605 10.2616 2.99881 9.93545 2.23833C9.80508 1.91894 9.60923 1.67578 9.34824 1.50846L9.22577 1.43982C9.14434 1.37909 9.01363 1.3146 8.83433 1.24588C8.65476 1.17724 8.4674 1.12802 8.27147 1.09773L1.56644 1.14312C0.881273 1.14312 0.41638 1.28783 0.171592 1.57686L0.0736251 1.71358C0.0246846 1.78973 0 1.91135 0 2.07876C0 2.24608 0.0489405 2.45144 0.146907 2.6946C1.12572 4.83931 2.19015 6.90771 3.34021 8.90011C4.49027 10.8925 5.48966 12.4975 6.33776 13.7135C7.18603 14.9304 8.05068 16.0789 8.93169 17.1584C9.81271 18.2384 10.3959 18.9305 10.6812 19.2345C10.9669 19.5391 11.1913 19.7668 11.3544 19.9189L11.9663 20.4664C12.3578 20.8315 12.9327 21.2687 13.6914 21.7781C14.4501 22.2878 15.2902 22.7897 16.2119 23.2844C17.1338 23.7783 18.2063 24.1813 19.43 24.493C20.6535 24.8051 21.8444 24.9303 23.0027 24.8699H25.817C26.3877 24.8239 26.8201 24.6566 27.114 24.3678L27.2114 24.2535C27.2769 24.1627 27.3381 24.0217 27.3947 23.8319C27.452 23.6418 27.4804 23.4324 27.4804 23.2045C27.4637 22.5507 27.5171 21.9613 27.6392 21.4367C27.7611 20.9122 27.9001 20.5167 28.0556 20.2504C28.211 19.9843 28.3864 19.7597 28.5815 19.5777C28.7771 19.3953 28.9165 19.2848 28.9983 19.2467C29.0795 19.2085 29.1444 19.1825 29.1933 19.1669C29.5849 19.0453 30.0456 19.1631 30.5764 19.5208C31.1066 19.8782 31.604 20.3196 32.0693 20.8441C32.5342 21.3691 33.0929 21.9581 33.7453 22.6119C34.3982 23.2661 34.969 23.7523 35.4582 24.0722L35.9475 24.3459C36.2742 24.5286 36.6984 24.6959 37.2205 24.848C37.7417 25 38.1984 25.038 38.5905 24.962L44.8548 24.8709C45.4744 24.8709 45.9565 24.7753 46.2985 24.5855C46.6412 24.3954 46.8448 24.186 46.9104 23.9581C46.9759 23.7301 46.9794 23.4713 46.9228 23.1821C46.8648 22.8935 46.8076 22.6918 46.7507 22.5777Z" fill="#C4C4C4"/>
</svg>
