<?xml version="1.0" encoding="utf-8"?>
<!-- Generator: Adobe Illustrator 23.1.0, SVG Export Plug-In . SVG Version: 6.00 Build 0)  -->
<svg version="1.1" id="Слой_1" xmlns="http://www.w3.org/2000/svg" xmlns:xlink="http://www.w3.org/1999/xlink" x="0px" y="0px"
	 viewBox="0 0 26 26" style="enable-background:new 0 0 26 26;" xml:space="preserve">
<style type="text/css">
	.st0{fill:#C4C4C4;}
</style>
<path class="st0" d="M17.9,0H8.1C3.6,0,0,3.6,0,8.1v9.8C0,22.4,3.6,26,8.1,26h9.8c4.5,0,8.1-3.6,8.1-8.1V8.1C26,3.6,22.4,0,17.9,0z
	 M23.6,17.9c0,3.1-2.6,5.7-5.7,5.7H8.1c-3.1,0-5.7-2.6-5.7-5.7V8.1C2.4,5,5,2.4,8.1,2.4h9.8c3.1,0,5.7,2.6,5.7,5.7V17.9z"/>
<path class="st0" d="M13,6.5c-3.6,0-6.5,2.9-6.5,6.5c0,3.6,2.9,6.5,6.5,6.5c3.6,0,6.5-2.9,6.5-6.5C19.5,9.4,16.6,6.5,13,6.5z
	 M13,17.1c-2.2,0-4.1-1.8-4.1-4.1c0-2.2,1.8-4.1,4.1-4.1s4.1,1.8,4.1,4.1C17.1,15.2,15.2,17.1,13,17.1z"/>
<path class="st0" d="M20,6.9c0.5,0,0.9-0.4,0.9-0.9S20.5,5.1,20,5.1c-0.5,0-0.9,0.4-0.9,0.9S19.5,6.9,20,6.9z"/>
</svg>
