<?xml version="1.0" encoding="utf-8"?>
<!-- Generator: Adobe Illustrator 23.1.0, SVG Export Plug-In . SVG Version: 6.00 Build 0)  -->
<svg version="1.1" id="Слой_1" xmlns="http://www.w3.org/2000/svg" xmlns:xlink="http://www.w3.org/1999/xlink" x="0px" y="0px"
	 viewBox="0 0 368 110" style="enable-background:new 0 0 368 110;" xml:space="preserve">
<style type="text/css">
	.st0{fill:#333333;}
	.st1{fill:#333333;stroke:#333333;stroke-width:2;stroke-miterlimit:10;}
</style>
<g transform="translate(0.000000,512.000000) scale(0.100000,-0.100000)">
	<path class="st0" d="M437.2,5113.2c-71-11.2-118.2-23-172.4-43.7c-61.3-23-142.1-65-166.3-86.6c-2.4-1.7-8.8-7.1-14.5-11.8
		c-39.7-31.8-70.4-71.8-79.4-103.2c-4.4-14.6-5-74.8-4.4-431.5l1-414.6l65-1l64.6-0.7v63.3c0,63,0.3,64,9.4,80.6
		c5,9.1,15.1,21,22.6,26.1c11.4,8.1,15.8,9.5,28.6,7.8c15.8-2,31.3-13.5,38-28.8c2.4-4.7,4.7-37.6,5.7-77.8l1.7-69.4l66.3-1l66-0.7
		l1.3,75.5l1,75.8l9.1,13.9c16.2,24.4,40.1,34.2,65,27.1c16.2-4.7,22.9-10.2,33-26.1c7.1-11.5,7.4-17.3,9.1-88.3l1.7-76.2h75.7h75.7
		l1.7,76.2c1.7,72.8,2,76.8,9.8,89c22.6,36.9,72.4,43.3,104.4,13.2c22.2-21,23.9-28.1,23.9-109V4020h77.1h76.8l-0.3,26.4
		c-0.3,14.2,0.3,49.8,1.3,78.5c1.3,44,2.7,54.2,8.4,63.6c10.1,16.9,24.2,24.4,46.8,24.4c21.9,0,27.3-2.4,42.8-17.6
		c15.8-15.9,19.5-32.8,19.2-82.9c-0.3-24-0.3-54.5,0-67.7l0.7-24.7h65.6h65.6l0.3,17.9c1.3,95.8,3.4,119.1,10.8,134
		c9.8,19.6,25.6,28.8,44.4,25.7c17.8-2.7,25.9-8.5,39.4-27.8l11.1-16.2l1-67l1.3-66.7l62.6,0.7l63,1l1,245.4
		c1,287.7,3.7,264.3-36.4,304.6c-24.9,25-38.7,37.2-42.4,37.2c-1,0-8.1,4.1-15.8,9.5c-57.2,37.6-185.2,81.2-285.1,97.1
		c-6.4,1-15.5,2.4-20.2,3.4c-41.1,7.1-133.7,15.2-178.1,15.2c-23.2,0-44.1,1.4-46.1,2.7c-7.1,4.7-11.1,16.6-15.8,47
		c-7.7,47-17.2,63.3-57.2,99.5c-18.9,17.3-40.1,38.6-46.8,47.4c-11.1,15.2-33,64.3-33,74.8c0,2.7-3.7,10.2-8.4,16.9
		c-4.7,6.8-8.4,13.5-8.4,14.6c0,1-1.7,3.7-3.4,6.1c-2,2.4-11.4,14.9-20.5,27.8c-9.4,13.2-22.6,29.4-29.3,36.6l-12.1,12.5l-42.4-0.3
		C494.8,5119.7,458.4,5116.6,437.2,5113.2z M464.5,4870.9c14.5-13.9,19.2-36.9,21.5-110.3c1-36.9,0.7-67-0.7-67
		c-7.1-0.3-32.3-4.1-58.2-8.5c-15.8-2.4-35.3-5.4-43.1-6.4l-14.8-2l1.3,73.8c1,65.3,2,75.1,8.1,88.7c8.1,17.6,27.6,36.2,41.1,39.3
		c5,1,10.8,2.4,12.5,3C439.9,4883.4,456.4,4878.3,464.5,4870.9z M220.1,4803.9c6.1-6.4,11.8-16.6,13.1-22.3c1-6.1,2-38.2,2-71.4
		v-60.6l-9.1-1.7c-8.4-2-79.1-23.7-91.2-28.1c-7.1-2.4-3.7,127.6,3.4,146.2c11.4,28.8,35.3,49.4,57.9,49.4
		C206.6,4815.4,211.3,4813,220.1,4803.9z M737.8,4550.4c12.1-4.1,32-24.4,38-38.6c3.4-8.1,4.7-29.8,4.7-83.9v-72.8h-69h-69v70.4
		c0,38.6,1.7,75.8,3.4,82.6C656,4543.9,698.8,4563.6,737.8,4550.4z M454.7,4537.2c11.1-6.8,18.9-15.2,26.3-28.8
		c6.1-11.5,6.7-19.3,6.7-86.3v-73.8l-10.8-0.7c-6.1-0.3-13.5-0.7-16.2-1c-2.7-0.3-18.5-1.7-35.3-3c-16.5-1.4-36-3-42.8-4.1
		l-12.8-1.4v67c0,89.7,5,107.6,35.3,127.3C419.7,4542.2,442.2,4544.3,454.7,4537.2z M1010.2,4537.5c12.8-6.8,26.9-21.7,34-35.2
		c6.1-11.5,7.1-21.3,8.4-70.1c0.7-30.8,0.3-64.3-0.7-74.5l-2.4-18.3l-52.9,4.4c-29,2-54.9,4.1-56.9,4.1c-3.4,0.3-4.4,16.9-4,72.4
		c0.3,71.8,1.7,83.6,13.1,99.2C961.7,4537.5,993,4546.6,1010.2,4537.5z M209.6,4499.3c20.9-8.8,23.9-21,24.9-103.9l1-73.1l-14.5-2
		c-8.1-1-23.2-3.4-34-5.4s-27.9-4.4-38.4-5.8l-18.5-2l1.3,72.1c1,66.3,1.7,73.4,8.4,86C157.4,4497.9,183,4510.4,209.6,4499.3z
		 M1252.9,4496.9c34-23.4,39.4-41,39.4-128.3c0-35.5-1-64-2.7-63c-1.3,0.7-9.4,2.4-17.5,3.7c-8.4,1-22.6,3.4-32,5.1
		c-9.1,1.7-24.9,4.1-34.7,5.1l-17.8,2.4l1,77.5l1,77.2l13.5,13.9c10.8,11.2,15.5,13.5,26.3,13.5
		C1237.1,4504,1246.8,4501,1252.9,4496.9z"/>
</g>
<g>
	<g>
		<path class="st0" d="M196.2,74.1c-2.1,0-4.1-0.3-6-0.9s-3.8-1.5-5.5-2.8V63h3.6l0.8,5.4c1,0.6,2.1,1.1,3.3,1.5s2.5,0.5,3.8,0.5
			c1.6,0,2.9-0.2,4-0.7s1.9-1.1,2.5-2s0.9-1.8,0.9-3c0-1-0.3-2-0.8-2.8s-1.3-1.5-2.5-2.1s-2.7-1.1-4.7-1.6c-2.3-0.5-4.3-1.3-5.9-2.2
			s-2.8-2-3.7-3.3s-1.3-2.8-1.3-4.5c0-1.8,0.5-3.4,1.4-4.8s2.3-2.5,3.9-3.3s3.7-1.2,5.9-1.2c2.4,0,4.5,0.4,6.3,1.1s3.3,1.6,4.5,2.6
			v6.8h-3.6l-0.8-4.9c-0.7-0.6-1.6-1-2.6-1.4s-2.3-0.6-3.9-0.6c-1.3,0-2.5,0.2-3.5,0.7s-1.8,1.1-2.3,1.9s-0.8,1.8-0.8,2.9
			c0,1,0.3,1.8,0.8,2.6s1.3,1.4,2.5,1.9s2.7,1.1,4.6,1.6c3.6,0.9,6.3,2.2,8.2,3.9s2.8,3.9,2.8,6.5c0,1.8-0.5,3.4-1.5,4.9
			s-2.4,2.5-4.2,3.3S198.6,74.1,196.2,74.1z"/>
		<path class="st0" d="M211.4,73.6v-3l3.8-0.7V40.6l-3.8-0.7v-3h8.4v14.6c0.9-1.2,1.9-2.2,3.2-2.8s2.7-1,4.2-1
			c2.7,0,4.8,0.8,6.3,2.4s2.3,4.1,2.3,7.5v12.3l3.8,0.7v3h-12.3v-3l3.8-0.7V57.6c0-2.1-0.4-3.6-1.3-4.6s-2.2-1.5-4-1.5
			c-1.3,0-2.4,0.3-3.5,0.9s-1.9,1.4-2.6,2.4v15.1l3.8,0.7v3H211.4z"/>
		<path class="st0" d="M251,74.1c-2.6,0-4.6-0.6-6-1.9s-2.1-3.1-2.1-5.4c0-1.6,0.4-3,1.3-4.2s2.2-2.1,3.8-2.8s3.7-1,6-1h4.5v-2.5
			c0-1.5-0.5-2.7-1.4-3.6s-2.2-1.3-3.9-1.3c-1.1,0-2,0.1-2.8,0.4s-1.5,0.6-2.1,1.1l-0.5,3.5h-3.6v-5.8c1.1-0.9,2.5-1.6,4-2.1
			s3.2-0.7,5-0.7c3.1,0,5.5,0.7,7.2,2.2s2.6,3.6,2.6,6.3v12.2c0,0.3,0,0.6,0,1s0,0.6,0.1,0.9l2.5,0.3v3h-6.6
			c-0.1-0.7-0.3-1.3-0.3-1.9s-0.1-1.1-0.2-1.6c-0.9,1.1-2,2.1-3.3,2.8S252.5,74.1,251,74.1z M251.7,70.2c1.5,0,2.9-0.4,4.2-1.1
			s2.2-1.6,2.7-2.6v-4.6h-4.7c-2.1,0-3.7,0.5-4.8,1.5s-1.6,2.1-1.6,3.4c0,1.1,0.3,2,1,2.5S250.3,70.2,251.7,70.2z"/>
		<path class="st0" d="M269.3,73.6v-3l3.8-0.7V51.8l-3.8-0.7v-3h7.9l0.3,3.8c0.8-1.3,1.9-2.4,3.2-3.1s2.7-1.1,4.3-1.1
			c2.7,0,4.9,0.8,6.4,2.4s2.3,4.1,2.3,7.4v12.4l3.8,0.7v3h-12.3v-3l3.8-0.7V57.6c0-2.2-0.4-3.8-1.3-4.8s-2.2-1.4-4-1.4
			c-1.3,0-2.5,0.3-3.5,1s-1.8,1.5-2.4,2.6v14.9l3.8,0.7v3H269.3z"/>
		<path class="st0" d="M312.3,74.1c-2.3,0-4.4-0.6-6.1-1.7s-3-2.6-3.9-4.6s-1.4-4.2-1.4-6.7v-0.5c0-2.5,0.5-4.7,1.4-6.7
			s2.2-3.5,3.9-4.6s3.7-1.7,6-1.7c2.3,0,4.4,0.6,6.1,1.7s3,2.6,3.9,4.6s1.4,4.2,1.4,6.7v0.5c0,2.5-0.5,4.7-1.4,6.7s-2.2,3.5-3.9,4.6
			S314.6,74.1,312.3,74.1z M312.3,70.4c1.5,0,2.7-0.4,3.7-1.2s1.7-1.9,2.3-3.3s0.8-3,0.8-4.8v-0.5c0-1.8-0.3-3.4-0.8-4.8
			s-1.3-2.5-2.3-3.3s-2.2-1.2-3.7-1.2c-1.5,0-2.7,0.4-3.7,1.2s-1.8,1.9-2.3,3.3s-0.8,3-0.8,4.8v0.5c0,1.8,0.3,3.4,0.8,4.8
			s1.3,2.5,2.3,3.3S310.8,70.4,312.3,70.4z"/>
		<path class="st0" d="M336.1,74c-1.9,0-3.4-0.6-4.5-1.7S330,69.4,330,67V51.6h-4v-3.4h4v-6.1h4.6v6.1h5.5v3.4h-5.5V67
			c0,1.2,0.2,2.1,0.7,2.7s1.1,0.9,1.9,0.9c0.5,0,1.2-0.1,1.8-0.2s1.2-0.2,1.6-0.3l0.6,3c-0.7,0.2-1.5,0.4-2.5,0.5S336.9,74,336.1,74
			z"/>
		<path class="st0" d="M355.7,74.1c-2.3,0-4.4-0.6-6.1-1.7s-3-2.6-3.9-4.6s-1.4-4.2-1.4-6.7v-0.5c0-2.5,0.5-4.7,1.4-6.7
			s2.2-3.5,3.9-4.6s3.7-1.7,6-1.7c2.3,0,4.4,0.6,6.1,1.7s3,2.6,3.9,4.6s1.4,4.2,1.4,6.7v0.5c0,2.5-0.5,4.7-1.4,6.7s-2.2,3.5-3.9,4.6
			S358,74.1,355.7,74.1z M355.7,70.4c1.5,0,2.7-0.4,3.7-1.2s1.7-1.9,2.3-3.3s0.8-3,0.8-4.8v-0.5c0-1.8-0.3-3.4-0.8-4.8
			s-1.3-2.5-2.3-3.3s-2.2-1.2-3.7-1.2c-1.5,0-2.7,0.4-3.7,1.2s-1.8,1.9-2.3,3.3s-0.8,3-0.8,4.8v0.5c0,1.8,0.3,3.4,0.8,4.8
			s1.3,2.5,2.3,3.3S354.2,70.4,355.7,70.4z"/>
	</g>
</g>
<line class="st1" x1="163.3" y1="0" x2="163.3" y2="110"/>
</svg>
