<svg width="83" height="83" viewBox="0 0 83 83" fill="none" xmlns="http://www.w3.org/2000/svg">
<circle cx="41.6603" cy="41.5" r="41" fill="#D1A954"/>
<g clip-path="url(#clip0)">
<path d="M53.8101 52.2004L46.664 45.0543C48.0194 43.381 48.8353 41.2536 48.8353 38.9375C48.8353 33.5682 44.467 29.2 39.0977 29.2C33.7285 29.2 29.3602 33.5682 29.3602 38.9375C29.3602 44.3067 33.7285 48.675 39.0978 48.675C41.4139 48.675 43.5412 47.8591 45.2146 46.5037L52.3607 53.6499C52.5609 53.85 52.8853 53.85 53.0855 53.6499L53.8101 52.9252C54.0102 52.725 54.0102 52.4005 53.8101 52.2004ZM39.0978 46.625C34.8586 46.625 31.4102 43.1766 31.4102 38.9375C31.4102 34.6984 34.8586 31.25 39.0978 31.25C43.3369 31.25 46.7853 34.6984 46.7853 38.9375C46.7853 43.1766 43.3369 46.625 39.0978 46.625Z" fill="white"/>
</g>
<defs>
<clipPath id="clip0">
<rect width="24.6" height="24.6" fill="white" transform="translate(29.3602 29.2)"/>
</clipPath>
</defs>
</svg>
