<?xml version="1.0" encoding="utf-8"?>
<!-- Generator: Adobe Illustrator 23.1.0, SVG Export Plug-In . SVG Version: 6.00 Build 0)  -->
<svg version="1.1" id="Слой_1" xmlns="http://www.w3.org/2000/svg" xmlns:xlink="http://www.w3.org/1999/xlink" x="0px" y="0px"
	 viewBox="0 0 26 14" style="enable-background:new 0 0 26 14;" xml:space="preserve">
<style type="text/css">
	.st0{fill:#D1A954;}
</style>
<path class="st0" d="M25.9,12.6c0-0.1-0.1-0.1-0.1-0.2c-0.5-0.8-1.3-1.7-2.6-2.8l0,0l0,0l0,0h0c-0.6-0.5-0.9-0.9-1.1-1
	c-0.3-0.3-0.3-0.7-0.2-1c0.1-0.3,0.5-0.8,1.2-1.7c0.4-0.5,0.7-0.8,0.9-1.1c1.6-2,2.2-3.2,2-3.8l-0.1-0.1c-0.1-0.1-0.2-0.1-0.4-0.2
	c-0.2-0.1-0.5-0.1-0.9,0l-3.9,0c-0.1,0-0.2,0-0.3,0c-0.1,0-0.2,0-0.2,0l-0.1,0l-0.1,0c0,0-0.1,0.1-0.1,0.1c-0.1,0.1-0.1,0.1-0.1,0.2
	c-0.4,1-0.9,2-1.4,2.9c-0.3,0.5-0.6,1-0.9,1.4c-0.3,0.4-0.5,0.7-0.7,0.9c-0.2,0.2-0.4,0.3-0.5,0.4c-0.2,0.1-0.3,0.2-0.4,0.1
	c-0.1,0-0.2,0-0.2-0.1c-0.1-0.1-0.2-0.2-0.3-0.3c-0.1-0.1-0.1-0.3-0.2-0.5c0-0.2,0-0.4,0-0.5c0-0.1,0-0.3,0-0.6c0-0.3,0-0.4,0-0.5
	c0-0.3,0-0.7,0-1.1c0-0.4,0-0.7,0-0.9c0-0.2,0-0.5,0-0.7s0-0.4,0-0.6c0-0.1-0.1-0.3-0.1-0.4c-0.1-0.1-0.2-0.2-0.3-0.3
	c-0.1-0.1-0.3-0.1-0.5-0.2C13.9,0.1,13.2,0,12.5,0c-1.7,0-2.8,0.1-3.2,0.3C9.1,0.4,8.9,0.5,8.8,0.7C8.6,0.9,8.6,1,8.7,1
	c0.5,0.1,0.9,0.3,1.2,0.5l0.1,0.2C10,1.8,10,2,10.1,2.3c0.1,0.3,0.1,0.6,0.1,0.9c0,0.6,0,1.2,0,1.6c0,0.4-0.1,0.8-0.1,1
	c0,0.2-0.1,0.4-0.2,0.6C9.8,6.6,9.8,6.7,9.8,6.7c0,0,0,0.1-0.1,0.1c-0.1,0-0.2,0.1-0.4,0.1C9.2,6.9,9,6.8,8.9,6.7
	C8.7,6.6,8.5,6.4,8.3,6.2C8.1,6,7.9,5.7,7.6,5.3C7.4,4.9,7.2,4.5,6.9,4L6.7,3.6C6.5,3.4,6.4,3,6.1,2.6C5.9,2.1,5.7,1.7,5.5,1.3
	C5.4,1.1,5.3,0.9,5.2,0.8l-0.1,0c0,0-0.1-0.1-0.2-0.1c-0.1,0-0.2-0.1-0.3-0.1l-3.7,0c-0.4,0-0.6,0.1-0.8,0.2L0,1c0,0,0,0.1,0,0.2
	c0,0.1,0,0.2,0.1,0.3C0.6,2.7,1.2,3.9,1.8,5C2.5,6.1,3,7,3.5,7.7C4,8.4,4.5,9,4.9,9.6c0.5,0.6,0.8,1,1,1.2c0.2,0.2,0.3,0.3,0.4,0.4
	l0.3,0.3c0.2,0.2,0.5,0.4,1,0.7C8,12.5,8.5,12.8,9,13c0.5,0.3,1.1,0.5,1.8,0.7c0.7,0.2,1.3,0.2,2,0.2h1.6c0.3,0,0.6-0.1,0.7-0.3
	l0.1-0.1c0-0.1,0.1-0.1,0.1-0.2c0-0.1,0-0.2,0-0.4c0-0.4,0-0.7,0.1-1c0.1-0.3,0.1-0.5,0.2-0.7c0.1-0.1,0.2-0.3,0.3-0.4
	c0.1-0.1,0.2-0.2,0.2-0.2c0,0,0.1,0,0.1,0c0.2-0.1,0.5,0,0.8,0.2c0.3,0.2,0.6,0.4,0.8,0.7c0.3,0.3,0.6,0.6,0.9,1
	c0.4,0.4,0.7,0.6,0.9,0.8l0.3,0.2c0.2,0.1,0.4,0.2,0.7,0.3c0.3,0.1,0.5,0.1,0.8,0.1l3.5-0.1c0.3,0,0.6-0.1,0.8-0.2
	c0.2-0.1,0.3-0.2,0.3-0.4c0-0.1,0-0.3,0-0.4C25.9,12.8,25.9,12.7,25.9,12.6z"/>
</svg>
